Coordinates
version=1
nRows=37
nColumns=38
inDegrees=no

Units are S.I. units (second, meters, Newtons, ...)
If the header above contains a line with 'inDegrees', this indicates whether rotational values are in degrees (yes) or radians (no).

endheader
time	pelvis_tilt	pelvis_list	pelvis_rotation	pelvis_tx	pelvis_ty	pelvis_tz	hip_flexion_r	hip_adduction_r	hip_rotation_r	knee_angle_r	ankle_angle_r	subtalar_angle_r	mtp_angle_r	hip_flexion_l	hip_adduction_l	hip_rotation_l	knee_angle_l	ankle_angle_l	subtalar_angle_l	mtp_angle_l	lumbar_extension	lumbar_bending	lumbar_rotation	arm_flex_r	arm_add_r	arm_rot_r	elbow_flex_r	pro_sup_r	wrist_flex_r	wrist_dev_r	arm_flex_l	arm_add_l	arm_rot_l	elbow_flex_l	pro_sup_l	wrist_flex_l	wrist_dev_l
0.61	-0.014558	1.52499	1.55563	0.652361	0.223608	1.01613	-0.0419751	-0.114476	-0.054965	0.824537	-0.698132	0	0	0.368834	-0.0391175	-0.322421	0.420113	-0.137848	0	0	-0.14193	-0.0574979	0.0570746	-0.0951299	-0.263642	0.0750054	0.763898	1.5708	0	0	-0.141662	-0.329819	0.502308	0.599092	0.890048	0	0
0.62	-0.00193342	1.52713	1.53062	0.652058	0.236843	1.01767	-0.0120714	-0.118211	-0.0374904	0.871221	-0.698132	0	0	0.350964	-0.0403685	-0.332024	0.421218	-0.123893	0	0	-0.14356	-0.0559018	0.0664946	-0.0945527	-0.267381	0.0987428	0.743967	1.5708	0	0	-0.133761	-0.330085	0.505141	0.603651	0.900299	0	0
0.63	0.0365213	1.52841	1.48039	0.651747	0.249956	1.01947	0.0163189	-0.119676	-0.0140855	0.911764	-0.698132	0	0	0.331686	-0.0419695	-0.342356	0.417046	-0.113008	0	0	-0.143871	-0.0528697	0.0732497	-0.0907983	-0.271686	0.129089	0.720989	1.5708	0	0	-0.128227	-0.329467	0.501019	0.609835	0.913024	0	0
0.64	0.0895463	1.52854	1.41721	0.651353	0.262926	1.02146	0.0446362	-0.119803	0.00637564	0.949095	-0.668695	0	0	0.312501	-0.043711	-0.353338	0.409757	-0.104611	0	0	-0.142645	-0.0488061	0.0763746	-0.0843092	-0.277257	0.1685	0.696274	1.5708	0	0	-0.125946	-0.327658	0.487172	0.617968	0.933986	0	0
0.65	0.151924	1.52709	1.34758	0.650762	0.275776	1.02353	0.0733407	-0.119284	0.0203887	0.983957	-0.604307	0	0	0.294691	-0.0455539	-0.363492	0.400926	-0.0991272	0	0	-0.139601	-0.0435238	0.0754513	-0.0763625	-0.283591	0.21421	0.671356	1.5708	0	0	-0.126349	-0.324066	0.463959	0.627019	0.96441	0	0
0.66	0.228611	1.52643	1.26758	0.649822	0.28869	1.02579	0.098698	-0.117939	0.0283424	1.01421	-0.528559	0	0	0.275779	-0.0472284	-0.3721	0.391306	-0.09578	0	0	-0.137375	-0.0374225	0.0667683	-0.0531055	-0.318125	0.363547	0.651175	1.46598	0	0	-0.143174	-0.297723	0.347616	0.636612	1.07914	0	0
0.67	0.299044	1.52609	1.19705	0.648703	0.301686	1.02826	0.121444	-0.116642	0.0320634	1.03817	-0.465646	0	0	0.256456	-0.0479273	-0.377075	0.380723	-0.0952443	0	0	-0.136055	-0.0307442	0.0619627	-0.0623671	-0.297134	0.31254	0.62995	1.5708	0	0	-0.138568	-0.302068	0.35445	0.649477	1.0825	0	0
0.68	0.435559	1.53246	1.06627	0.646915	0.315139	1.03142	0.136937	-0.122242	-0.0174023	1.05608	-0.427076	0	0	0.228738	-0.0469281	-0.380515	0.368987	-0.0961952	0	0	-0.142601	-0.0237137	0.0515449	-0.0642287	-0.300077	0.33437	0.61989	1.5708	0	0	-0.135574	-0.30415	0.350611	0.664527	1.09542	0	0
0.69	0.441546	1.52408	1.06153	0.646146	0.327477	1.0335	0.162572	-0.114328	0.0243942	1.06571	-0.365119	0	0	0.220176	-0.0497186	-0.380436	0.361512	-0.0975448	0	0	-0.132583	-0.0164863	0.0460524	-0.0636699	-0.302886	0.365705	0.605169	1.5708	0	0	-0.133946	-0.303849	0.336766	0.677294	1.1175	0	0
0.7	0.694196	1.53472	0.823841	0.643721	0.340964	1.03733	0.170654	-0.128198	-0.085219	1.07172	-0.347107	0	0	0.185807	-0.0469062	-0.378215	0.349222	-0.101362	0	0	-0.147012	-0.00922184	0.0283986	-0.0677287	-0.306415	0.382105	0.601772	1.5708	0	0	-0.130995	-0.306158	0.327273	0.696573	1.13382	0	0
0.71	0.60932	1.52445	0.908363	0.643394	0.352559	1.0392	0.194903	-0.113491	0.00435159	1.06891	-0.296957	0	0	0.179647	-0.0487564	-0.374279	0.339699	-0.104599	0	0	-0.135102	-0.00318984	0.0261575	-0.070373	-0.306141	0.396519	0.591539	1.5708	0	0	-0.128401	-0.305848	0.311134	0.711141	1.15622	0	0
0.72	1.0196	1.53545	0.516409	0.640616	0.366337	1.0434	0.197185	-0.131508	-0.143556	1.06608	-0.288903	0	0	0.137694	-0.045947	-0.370846	0.322947	-0.109805	0	0	-0.154269	0.00504859	0.00666144	-0.0783115	-0.308276	0.397865	0.592952	1.5708	0	0	-0.12496	-0.308035	0.302256	0.731447	1.16947	0	0
0.73	1.16699	1.53333	0.377194	0.639296	0.378649	1.04627	0.208936	-0.129691	-0.159558	1.05532	-0.266447	0	0	0.113979	-0.046455	-0.364108	0.307089	-0.115223	0	0	-0.157974	0.0128639	-0.00300288	-0.0850271	-0.307158	0.393514	0.590942	1.5708	0	0	-0.120857	-0.310265	0.293265	0.750154	1.18058	0	0
0.74	1.25954	1.53012	0.290687	0.63818	0.390992	1.04887	0.221877	-0.126613	-0.170622	1.04117	-0.229434	0	0	0.0914879	-0.0476118	-0.359721	0.290785	-0.122968	0	0	-0.159647	0.0203008	-0.0123049	-0.08874	-0.309061	0.403274	0.587608	1.5708	0	0	-0.122106	-0.304963	0.260388	0.769111	1.21317	0	0
0.75	1.29645	1.52607	0.258259	0.637273	0.403278	1.05116	0.236634	-0.122213	-0.178202	1.02342	-0.211702	0	0	0.0714707	-0.0497838	-0.358044	0.275833	-0.126292	0	0	-0.159352	0.027868	-0.0176412	-0.0992775	-0.303522	0.377148	0.587009	1.5708	0	0	-0.11745	-0.308875	0.259295	0.787299	1.21583	0	0
0.76	1.32327	1.5216	0.236223	0.63639	0.415364	1.05321	0.250883	-0.117328	-0.187049	1.00191	-0.187352	0	0	0.0520419	-0.052506	-0.356582	0.260711	-0.131158	0	0	-0.159641	0.0358858	-0.0237253	-0.108787	-0.298634	0.352162	0.58752	1.5708	0	0	-0.113082	-0.312222	0.255652	0.806156	1.21953	0	0
0.77	1.3359	1.51693	0.228313	0.635593	0.427313	1.05498	0.265156	-0.112473	-0.198328	0.97685	-0.161016	0	0	0.0331422	-0.0553929	-0.354609	0.244931	-0.137138	0	0	-0.159868	0.0439077	-0.029778	-0.117924	-0.292711	0.324242	0.588248	1.5708	0	0	-0.109086	-0.314764	0.249102	0.825375	1.22467	0	0
0.78	1.34486	1.51254	0.224286	0.634868	0.439264	1.0565	0.278666	-0.107777	-0.2111	0.948023	-0.140544	0	0	0.0140721	-0.0581386	-0.353366	0.228751	-0.142605	0	0	-0.159989	0.0515237	-0.036073	-0.12622	-0.286689	0.2987	0.588419	1.5708	0	0	-0.105407	-0.317365	0.242209	0.84486	1.22973	0	0
0.79	1.37666	1.50893	0.19793	0.634156	0.451266	1.05792	0.289031	-0.103727	-0.227356	0.913892	-0.120029	0	0	-0.00763053	-0.0600422	-0.350748	0.210379	-0.149522	0	0	-0.162065	0.058631	-0.0423386	-0.134377	-0.278954	0.268147	0.588543	1.5708	0	0	-0.101742	-0.319373	0.23367	0.864653	1.2365	0	0
0.8	1.37175	1.50586	0.20692	0.633612	0.463232	1.05891	0.301485	-0.101344	-0.247097	0.876838	-0.106691	0	0	-0.0273561	-0.0610545	-0.350446	0.191967	-0.155209	0	0	-0.161721	0.0644289	-0.047138	-0.141394	-0.272291	0.244016	0.587712	1.5708	0	0	-0.0978533	-0.321688	0.2267	0.883578	1.24244	0	0
0.81	1.38891	1.50336	0.194779	0.633063	0.475086	1.05975	0.310809	-0.100288	-0.271827	0.835472	-0.0927719	0	0	-0.0493291	-0.0611667	-0.34567	0.170966	-0.165795	0	0	-0.163919	0.0699145	-0.0526851	-0.147858	-0.263304	0.212288	0.586533	1.5708	0	0	-0.0953122	-0.319442	0.207564	0.902629	1.26081	0	0
0.82	1.38569	1.50094	0.20291	0.632675	0.486962	1.06015	0.320081	-0.0983638	-0.295659	0.789015	-0.0892942	0	0	-0.0690871	-0.0616282	-0.341977	0.152443	-0.169755	0	0	-0.164192	0.0746341	-0.0567114	-0.153098	-0.256538	0.191372	0.585158	1.5708	0	0	-0.0899963	-0.322849	0.20392	0.921075	1.26309	0	0
0.83	1.38798	1.49874	0.205656	0.632366	0.498746	1.06029	0.326742	-0.0942519	-0.315713	0.735405	-0.0891257	0	0	-0.0887614	-0.0623979	-0.337875	0.135119	-0.175066	0	0	-0.165352	0.0790937	-0.060892	-0.157076	-0.249891	0.17208	0.582541	1.5708	0	0	-0.0846285	-0.32562	0.198617	0.939279	1.26632	0	0
0.84	1.38141	1.49666	0.216925	0.632235	0.510458	1.0601	0.332055	-0.0876893	-0.331377	0.674867	-0.0925572	0	0	-0.107138	-0.0634381	-0.333747	0.119251	-0.180014	0	0	-0.166274	0.0829213	-0.0645446	-0.160048	-0.243059	0.154588	0.579401	1.5708	0	0	-0.0793188	-0.328069	0.192258	0.957379	1.26992	0	0
0.85	1.36264	1.49474	0.239583	0.632277	0.522213	1.05948	0.336427	-0.0791504	-0.341926	0.608207	-0.0996718	0	0	-0.123858	-0.0644924	-0.330543	0.105085	-0.183299	0	0	-0.166369	0.0860185	-0.0673779	-0.16227	-0.236802	0.140171	0.575985	1.5708	0	0	-0.074371	-0.33013	0.185282	0.975028	1.27317	0	0
0.86	1.32754	1.49274	0.277807	0.632481	0.534007	1.05837	0.340426	-0.069048	-0.347031	0.536441	-0.11011	0	0	-0.138543	-0.0656626	-0.327962	0.0924813	-0.184649	0	0	-0.165078	0.0885143	-0.0695664	-0.163777	-0.231498	0.129957	0.572194	1.5708	0	0	-0.069909	-0.331993	0.178233	0.992244	1.27644	0	0
0.87	1.28071	1.49035	0.327368	0.632813	0.54583	1.0568	0.343666	-0.0572439	-0.346417	0.459773	-0.125301	0	0	-0.151354	-0.0672345	-0.325949	0.0815716	-0.184241	0	0	-0.162538	0.0906386	-0.0712892	-0.164545	-0.227155	0.124075	0.567801	1.5708	0	0	-0.0657402	-0.333413	0.170684	1.00878	1.281	0	0
0.88	1.22711	1.48786	0.383391	0.633245	0.557685	1.05485	0.345527	-0.0446362	-0.339078	0.378341	-0.155114	0	0	-0.162497	-0.0690012	-0.325093	0.0732861	-0.180702	0	0	-0.159208	0.0920314	-0.0730222	-0.163777	-0.224408	0.126026	0.562179	1.5708	0	0	-0.0628498	-0.332369	0.157897	1.02472	1.29342	0	0
0.89	1.15687	1.48561	0.455578	0.633704	0.569591	1.05242	0.347464	-0.0328318	-0.323854	0.296322	-0.166824	0	0	-0.171222	-0.0688301	-0.326127	0.0647019	-0.177328	0	0	-0.153996	0.0921051	-0.0756071	-0.164111	-0.223737	0.13273	0.554572	1.5708	0	0	-0.0599983	-0.33573	0.15374	1.04027	1.29772	0	0
0.9	1.06636	1.48377	0.545825	0.634612	0.581701	1.04957	0.349238	-0.0219136	-0.298917	0.210586	-0.190255	0	0	-0.179999	-0.0676838	-0.323285	0.0595216	-0.170972	0	0	-0.146913	0.0892621	-0.0733451	-0.160722	-0.222127	0.147093	0.548265	1.5708	0	0	-0.0565738	-0.336274	0.146037	1.05501	1.3095	0	0
0.91	0.971617	1.48261	0.640976	0.635401	0.593775	1.04642	0.349785	-0.0141877	-0.268179	0.127589	-0.20333	0	0	-0.187753	-0.0641996	-0.321768	0.0539555	-0.164338	0	0	-0.140089	0.0848494	-0.0731865	-0.157424	-0.222188	0.1661	0.539681	1.5708	0	0	-0.0536624	-0.339073	0.141729	1.06955	1.31904	0	0
0.92	0.871725	1.48213	0.741692	0.636186	0.605904	1.04304	0.34905	-0.0102148	-0.232623	0.0478036	-0.2079	0	0	-0.194947	-0.0594429	-0.320269	0.0508393	-0.155553	0	0	-0.133662	0.0785411	-0.0735699	-0.152849	-0.222829	0.190919	0.530204	1.5708	0	0	-0.0509073	-0.342245	0.137901	1.08343	1.33038	0	0
0.93	0.794573	1.48346	0.820684	0.636821	0.618209	1.03976	0.350815	-0.0100018	-0.217713	0	-0.206274	0	0	-0.204883	-0.0545645	-0.319047	0.0492826	-0.156747	0	0	-0.13109	0.0722779	-0.0724649	-0.152107	-0.218235	0.188641	0.525097	1.5708	0	0	-0.0439264	-0.349396	0.146002	1.09519	1.32977	0	0
0.94	0.684858	1.48245	0.930289	0.63767	0.630733	1.03615	0.363099	-0.0118525	-0.214525	0	-0.177854	0	0	-0.208329	-0.0498232	-0.326851	0.057181	-0.127885	0	0	-0.123707	0.0635655	-0.0742722	-0.137257	-0.228001	0.267272	0.504646	1.5708	0	0	-0.0446678	-0.350607	0.135911	1.107	1.35708	0	0
0.95	0.629059	1.48317	0.987416	0.638414	0.643333	1.03295	0.370611	-0.0119271	-0.220534	0	-0.167927	0	0	-0.216272	-0.0478966	-0.331668	0.0650685	-0.120178	0	0	-0.122703	0.0587283	-0.0729128	-0.131825	-0.228488	0.289273	0.495908	1.5708	0	0	-0.0387497	-0.35438	0.139512	1.11487	1.36534	0	0
0.96	0.593495	1.484	1.02491	0.639209	0.656044	1.02985	0.376055	-0.0109158	-0.226091	0	-0.160034	0	0	-0.223709	-0.0483294	-0.335825	0.0768227	-0.113959	0	0	-0.123161	0.0554986	-0.0713926	-0.126799	-0.228745	0.308072	0.488586	1.5708	0	0	-0.0322171	-0.357527	0.143953	1.12069	1.37242	0	0
0.97	0.574275	1.48478	1.04676	0.640005	0.668859	1.02685	0.380216	-0.00916071	-0.228393	0	-0.155204	0	0	-0.230894	-0.0504773	-0.336747	0.089817	-0.110481	0	0	-0.124403	0.0540052	-0.0703109	-0.122977	-0.229378	0.32227	0.483491	1.5708	0	0	-0.0256986	-0.359382	0.148083	1.12409	1.37709	0	0
